<mxfile host="app.diagrams.net" modified="2024-03-26T20:31:02.194Z" agent="Mozilla/5.0 (Windows NT 10.0; Win64; x64) AppleWebKit/537.36 (KHTML, like Gecko) Chrome/123.0.0.0 Safari/537.36" etag="g_TA7ud57hJtz4fmd_Ti" version="24.1.0" type="device">
  <diagram name="Page-1" id="LbJUKonwbourqvJiCGiW">
    <mxGraphModel dx="1050" dy="565" grid="0" gridSize="10" guides="1" tooltips="1" connect="1" arrows="1" fold="1" page="1" pageScale="1" pageWidth="850" pageHeight="1100" math="0" shadow="0">
      <root>
        <mxCell id="0" />
        <mxCell id="1" parent="0" />
        <mxCell id="G7QfSokvVwDWU3bzImGe-1" value="&lt;b&gt;Start&lt;/b&gt;" style="ellipse;whiteSpace=wrap;html=1;fillColor=#fff2cc;strokeColor=#d6b656;" parent="1" vertex="1">
          <mxGeometry x="557" y="63" width="90" height="50" as="geometry" />
        </mxCell>
        <mxCell id="G7QfSokvVwDWU3bzImGe-4" value="" style="endArrow=classic;html=1;rounded=0;exitX=0.5;exitY=1;exitDx=0;exitDy=0;" parent="1" source="G7QfSokvVwDWU3bzImGe-1" edge="1">
          <mxGeometry width="50" height="50" relative="1" as="geometry">
            <mxPoint x="390" y="130" as="sourcePoint" />
            <mxPoint x="602" y="179" as="targetPoint" />
          </mxGeometry>
        </mxCell>
        <mxCell id="G7QfSokvVwDWU3bzImGe-5" value="&lt;b&gt;Send OTP&lt;/b&gt;" style="rounded=0;whiteSpace=wrap;html=1;fillColor=#d5e8d4;strokeColor=#82b366;" parent="1" vertex="1">
          <mxGeometry x="130" y="180" width="120" height="40" as="geometry" />
        </mxCell>
        <mxCell id="G7QfSokvVwDWU3bzImGe-58" style="edgeStyle=orthogonalEdgeStyle;rounded=0;orthogonalLoop=1;jettySize=auto;html=1;entryX=0.5;entryY=0;entryDx=0;entryDy=0;" parent="1" source="G7QfSokvVwDWU3bzImGe-6" target="G7QfSokvVwDWU3bzImGe-56" edge="1">
          <mxGeometry relative="1" as="geometry" />
        </mxCell>
        <mxCell id="G7QfSokvVwDWU3bzImGe-6" value="&lt;b&gt;Registration&lt;/b&gt;" style="rounded=0;whiteSpace=wrap;html=1;fillColor=#d5e8d4;strokeColor=#82b366;" parent="1" vertex="1">
          <mxGeometry x="545" y="180" width="120" height="40" as="geometry" />
        </mxCell>
        <mxCell id="G7QfSokvVwDWU3bzImGe-11" value="" style="endArrow=classic;html=1;rounded=0;exitX=0.5;exitY=1;exitDx=0;exitDy=0;entryX=0.449;entryY=0.005;entryDx=0;entryDy=0;entryPerimeter=0;" parent="1" source="G7QfSokvVwDWU3bzImGe-5" edge="1">
          <mxGeometry width="50" height="50" relative="1" as="geometry">
            <mxPoint x="260" y="250" as="sourcePoint" />
            <mxPoint x="190.81999999999994" y="260.20000000000005" as="targetPoint" />
          </mxGeometry>
        </mxCell>
        <mxCell id="8mwjDF06snm8M_GWOM34-4" style="edgeStyle=orthogonalEdgeStyle;rounded=0;orthogonalLoop=1;jettySize=auto;html=1;entryX=0.5;entryY=0;entryDx=0;entryDy=0;" edge="1" parent="1" source="G7QfSokvVwDWU3bzImGe-12">
          <mxGeometry relative="1" as="geometry">
            <mxPoint x="190" y="370" as="targetPoint" />
          </mxGeometry>
        </mxCell>
        <mxCell id="8mwjDF06snm8M_GWOM34-14" style="edgeStyle=orthogonalEdgeStyle;rounded=0;orthogonalLoop=1;jettySize=auto;html=1;entryX=1;entryY=0.25;entryDx=0;entryDy=0;" edge="1" parent="1" source="G7QfSokvVwDWU3bzImGe-12" target="G7QfSokvVwDWU3bzImGe-5">
          <mxGeometry relative="1" as="geometry">
            <Array as="points">
              <mxPoint x="270" y="302" />
              <mxPoint x="270" y="190" />
            </Array>
          </mxGeometry>
        </mxCell>
        <mxCell id="G7QfSokvVwDWU3bzImGe-12" value="&lt;b&gt;OTP&amp;nbsp;&lt;/b&gt;&lt;div&gt;&lt;b&gt;received&lt;/b&gt;&lt;div&gt;&lt;b&gt;?&lt;/b&gt;&lt;/div&gt;&lt;/div&gt;" style="rhombus;whiteSpace=wrap;html=1;fillColor=#76608a;strokeColor=#432D57;fontColor=#ffffff;" parent="1" vertex="1">
          <mxGeometry x="145" y="262" width="90" height="80" as="geometry" />
        </mxCell>
        <mxCell id="G7QfSokvVwDWU3bzImGe-119" style="edgeStyle=orthogonalEdgeStyle;rounded=0;orthogonalLoop=1;jettySize=auto;html=1;exitX=0;exitY=0.5;exitDx=0;exitDy=0;entryX=1;entryY=0.5;entryDx=0;entryDy=0;" parent="1" source="G7QfSokvVwDWU3bzImGe-56" target="G7QfSokvVwDWU3bzImGe-117" edge="1">
          <mxGeometry relative="1" as="geometry" />
        </mxCell>
        <mxCell id="G7QfSokvVwDWU3bzImGe-121" style="edgeStyle=orthogonalEdgeStyle;rounded=0;orthogonalLoop=1;jettySize=auto;html=1;exitX=0.5;exitY=1;exitDx=0;exitDy=0;entryX=0.5;entryY=0;entryDx=0;entryDy=0;" parent="1" source="G7QfSokvVwDWU3bzImGe-56" target="G7QfSokvVwDWU3bzImGe-68" edge="1">
          <mxGeometry relative="1" as="geometry" />
        </mxCell>
        <mxCell id="G7QfSokvVwDWU3bzImGe-56" value="&lt;b&gt;Is Admin&lt;/b&gt;&lt;div&gt;&lt;b&gt;?&lt;/b&gt;&lt;/div&gt;" style="rhombus;whiteSpace=wrap;html=1;fillColor=#76608a;strokeColor=#432D57;fontColor=#ffffff;" parent="1" vertex="1">
          <mxGeometry x="560" y="260" width="90" height="80" as="geometry" />
        </mxCell>
        <mxCell id="G7QfSokvVwDWU3bzImGe-101" style="edgeStyle=orthogonalEdgeStyle;rounded=0;orthogonalLoop=1;jettySize=auto;html=1;exitX=0.5;exitY=1;exitDx=0;exitDy=0;entryX=1;entryY=0.5;entryDx=0;entryDy=0;" parent="1" source="G7QfSokvVwDWU3bzImGe-57" target="G7QfSokvVwDWU3bzImGe-77" edge="1">
          <mxGeometry relative="1" as="geometry">
            <mxPoint x="810" y="600" as="targetPoint" />
            <Array as="points">
              <mxPoint x="784" y="480" />
              <mxPoint x="811" y="480" />
              <mxPoint x="811" y="591" />
            </Array>
          </mxGeometry>
        </mxCell>
        <mxCell id="G7QfSokvVwDWU3bzImGe-129" style="edgeStyle=orthogonalEdgeStyle;rounded=0;orthogonalLoop=1;jettySize=auto;html=1;exitX=1;exitY=0.5;exitDx=0;exitDy=0;entryX=1;entryY=0.5;entryDx=0;entryDy=0;" parent="1" source="G7QfSokvVwDWU3bzImGe-57" target="G7QfSokvVwDWU3bzImGe-6" edge="1">
          <mxGeometry relative="1" as="geometry" />
        </mxCell>
        <mxCell id="G7QfSokvVwDWU3bzImGe-57" value="&lt;b&gt;Is&amp;nbsp;&lt;/b&gt;&lt;div&gt;&lt;b&gt;Contestant&lt;/b&gt;&lt;div&gt;&lt;b&gt;?&lt;/b&gt;&lt;/div&gt;&lt;/div&gt;" style="rhombus;whiteSpace=wrap;html=1;fillColor=#76608a;strokeColor=#432D57;fontColor=#ffffff;" parent="1" vertex="1">
          <mxGeometry x="678.75" y="260" width="90" height="80" as="geometry" />
        </mxCell>
        <mxCell id="G7QfSokvVwDWU3bzImGe-73" style="edgeStyle=orthogonalEdgeStyle;rounded=0;orthogonalLoop=1;jettySize=auto;html=1;exitX=0.5;exitY=1;exitDx=0;exitDy=0;entryX=0.5;entryY=0;entryDx=0;entryDy=0;" parent="1" source="G7QfSokvVwDWU3bzImGe-68" target="G7QfSokvVwDWU3bzImGe-72" edge="1">
          <mxGeometry relative="1" as="geometry" />
        </mxCell>
        <mxCell id="G7QfSokvVwDWU3bzImGe-68" value="&lt;b&gt;Pincode&lt;/b&gt;" style="shape=parallelogram;perimeter=parallelogramPerimeter;whiteSpace=wrap;html=1;fixedSize=1;fillColor=#dae8fc;strokeColor=#6c8ebf;" parent="1" vertex="1">
          <mxGeometry x="541.25" y="370" width="127.5" height="40" as="geometry" />
        </mxCell>
        <mxCell id="G7QfSokvVwDWU3bzImGe-78" style="edgeStyle=orthogonalEdgeStyle;rounded=0;orthogonalLoop=1;jettySize=auto;html=1;entryX=0.5;entryY=0;entryDx=0;entryDy=0;" parent="1" source="G7QfSokvVwDWU3bzImGe-72" target="G7QfSokvVwDWU3bzImGe-77" edge="1">
          <mxGeometry relative="1" as="geometry" />
        </mxCell>
        <mxCell id="G7QfSokvVwDWU3bzImGe-72" value="&lt;b&gt;Correct&lt;/b&gt;&lt;div&gt;&lt;b&gt;?&lt;/b&gt;&lt;/div&gt;" style="rhombus;whiteSpace=wrap;html=1;fillColor=#76608a;strokeColor=#432D57;fontColor=#ffffff;" parent="1" vertex="1">
          <mxGeometry x="560" y="450" width="90" height="80" as="geometry" />
        </mxCell>
        <mxCell id="G7QfSokvVwDWU3bzImGe-80" style="edgeStyle=orthogonalEdgeStyle;rounded=0;orthogonalLoop=1;jettySize=auto;html=1;entryX=0.5;entryY=0;entryDx=0;entryDy=0;" parent="1" source="G7QfSokvVwDWU3bzImGe-77" target="G7QfSokvVwDWU3bzImGe-79" edge="1">
          <mxGeometry relative="1" as="geometry" />
        </mxCell>
        <mxCell id="G7QfSokvVwDWU3bzImGe-77" value="&lt;b&gt;Email&lt;/b&gt;" style="shape=parallelogram;perimeter=parallelogramPerimeter;whiteSpace=wrap;html=1;fixedSize=1;fillColor=#dae8fc;strokeColor=#6c8ebf;" parent="1" vertex="1">
          <mxGeometry x="515" y="590" width="180" height="40" as="geometry" />
        </mxCell>
        <mxCell id="G7QfSokvVwDWU3bzImGe-127" style="edgeStyle=orthogonalEdgeStyle;rounded=0;orthogonalLoop=1;jettySize=auto;html=1;exitX=0.5;exitY=1;exitDx=0;exitDy=0;entryX=0;entryY=0.5;entryDx=0;entryDy=0;" parent="1" source="G7QfSokvVwDWU3bzImGe-79" target="G7QfSokvVwDWU3bzImGe-5" edge="1">
          <mxGeometry relative="1" as="geometry">
            <mxPoint x="50" y="190" as="targetPoint" />
            <Array as="points">
              <mxPoint x="605" y="760" />
              <mxPoint x="40" y="760" />
              <mxPoint x="40" y="200" />
            </Array>
          </mxGeometry>
        </mxCell>
        <mxCell id="G7QfSokvVwDWU3bzImGe-79" value="&lt;b&gt;Is Valid&lt;/b&gt;&lt;div&gt;&lt;b&gt;?&lt;/b&gt;&lt;/div&gt;" style="rhombus;whiteSpace=wrap;html=1;fillColor=#76608a;strokeColor=#432D57;fontColor=#ffffff;" parent="1" vertex="1">
          <mxGeometry x="560" y="660" width="90" height="80" as="geometry" />
        </mxCell>
        <mxCell id="G7QfSokvVwDWU3bzImGe-90" style="rounded=0;orthogonalLoop=1;jettySize=auto;html=1;elbow=vertical;edgeStyle=elbowEdgeStyle;entryX=0.13;entryY=1.085;entryDx=0;entryDy=0;entryPerimeter=0;" parent="1" source="G7QfSokvVwDWU3bzImGe-117" target="G7QfSokvVwDWU3bzImGe-6" edge="1">
          <mxGeometry relative="1" as="geometry">
            <mxPoint x="500" y="240" as="targetPoint" />
            <Array as="points">
              <mxPoint x="520" y="260" />
              <mxPoint x="510" y="354" />
            </Array>
          </mxGeometry>
        </mxCell>
        <mxCell id="G7QfSokvVwDWU3bzImGe-84" value="" style="ellipse;whiteSpace=wrap;html=1;aspect=fixed;fillColor=#f8cecc;strokeColor=#b85450;" parent="1" vertex="1">
          <mxGeometry x="460" y="485" width="10" height="10" as="geometry" />
        </mxCell>
        <mxCell id="G7QfSokvVwDWU3bzImGe-96" value="&lt;b&gt;NO&lt;/b&gt;" style="text;html=1;align=center;verticalAlign=middle;whiteSpace=wrap;rounded=0;" parent="1" vertex="1">
          <mxGeometry x="490" y="460" width="60" height="30" as="geometry" />
        </mxCell>
        <mxCell id="G7QfSokvVwDWU3bzImGe-99" value="" style="endArrow=classic;html=1;rounded=0;entryX=0.449;entryY=0.005;entryDx=0;entryDy=0;entryPerimeter=0;" parent="1" edge="1">
          <mxGeometry width="50" height="50" relative="1" as="geometry">
            <mxPoint x="720" y="240" as="sourcePoint" />
            <mxPoint x="723.5" y="260" as="targetPoint" />
          </mxGeometry>
        </mxCell>
        <mxCell id="G7QfSokvVwDWU3bzImGe-102" value="&lt;b&gt;YES&lt;/b&gt;" style="text;html=1;align=center;verticalAlign=middle;whiteSpace=wrap;rounded=0;" parent="1" vertex="1">
          <mxGeometry x="678.75" y="410" width="60" height="30" as="geometry" />
        </mxCell>
        <mxCell id="G7QfSokvVwDWU3bzImGe-103" value="&lt;b&gt;YES&lt;/b&gt;" style="text;html=1;align=center;verticalAlign=middle;whiteSpace=wrap;rounded=0;" parent="1" vertex="1">
          <mxGeometry x="560" y="540" width="60" height="30" as="geometry" />
        </mxCell>
        <mxCell id="G7QfSokvVwDWU3bzImGe-109" value="&lt;b&gt;End&lt;/b&gt;" style="ellipse;whiteSpace=wrap;html=1;fillColor=#fff2cc;strokeColor=#d6b656;" parent="1" vertex="1">
          <mxGeometry x="145" y="697" width="90" height="50" as="geometry" />
        </mxCell>
        <mxCell id="G7QfSokvVwDWU3bzImGe-118" value="" style="rounded=0;orthogonalLoop=1;jettySize=auto;html=1;elbow=vertical;edgeStyle=elbowEdgeStyle;entryX=0.5;entryY=1;entryDx=0;entryDy=0;" parent="1" source="G7QfSokvVwDWU3bzImGe-84" target="G7QfSokvVwDWU3bzImGe-117" edge="1">
          <mxGeometry relative="1" as="geometry">
            <mxPoint x="465" y="320" as="targetPoint" />
            <mxPoint x="465" y="485" as="sourcePoint" />
            <Array as="points" />
          </mxGeometry>
        </mxCell>
        <mxCell id="G7QfSokvVwDWU3bzImGe-117" value="" style="ellipse;whiteSpace=wrap;html=1;aspect=fixed;fillColor=#f8cecc;strokeColor=#b85450;" parent="1" vertex="1">
          <mxGeometry x="460" y="295" width="10" height="10" as="geometry" />
        </mxCell>
        <mxCell id="G7QfSokvVwDWU3bzImGe-120" value="&lt;b&gt;NO&lt;/b&gt;" style="text;html=1;align=center;verticalAlign=middle;whiteSpace=wrap;rounded=0;" parent="1" vertex="1">
          <mxGeometry x="485" y="275" width="60" height="30" as="geometry" />
        </mxCell>
        <mxCell id="G7QfSokvVwDWU3bzImGe-123" value="" style="endArrow=classic;html=1;rounded=0;entryX=1;entryY=0.5;entryDx=0;entryDy=0;exitX=0;exitY=0.5;exitDx=0;exitDy=0;exitPerimeter=0;" parent="1" source="G7QfSokvVwDWU3bzImGe-72" target="G7QfSokvVwDWU3bzImGe-84" edge="1">
          <mxGeometry width="50" height="50" relative="1" as="geometry">
            <mxPoint x="555" y="490" as="sourcePoint" />
            <mxPoint x="485" y="470" as="targetPoint" />
          </mxGeometry>
        </mxCell>
        <mxCell id="G7QfSokvVwDWU3bzImGe-128" value="" style="endArrow=none;html=1;rounded=0;" parent="1" edge="1">
          <mxGeometry width="50" height="50" relative="1" as="geometry">
            <mxPoint x="720" y="240" as="sourcePoint" />
            <mxPoint x="605" y="240.71067811865476" as="targetPoint" />
          </mxGeometry>
        </mxCell>
        <mxCell id="G7QfSokvVwDWU3bzImGe-130" value="&lt;b&gt;NO&lt;/b&gt;" style="text;html=1;align=center;verticalAlign=middle;whiteSpace=wrap;rounded=0;" parent="1" vertex="1">
          <mxGeometry x="780" y="230" width="60" height="30" as="geometry" />
        </mxCell>
        <mxCell id="G7QfSokvVwDWU3bzImGe-131" value="&lt;b&gt;YES&lt;/b&gt;&lt;div&gt;&lt;br&gt;&lt;/div&gt;" style="text;html=1;align=center;verticalAlign=middle;whiteSpace=wrap;rounded=0;" parent="1" vertex="1">
          <mxGeometry x="550" y="340" width="60" height="30" as="geometry" />
        </mxCell>
        <mxCell id="G7QfSokvVwDWU3bzImGe-136" value="&lt;b&gt;YES&lt;/b&gt;&lt;div&gt;&lt;br&gt;&lt;/div&gt;" style="text;html=1;align=center;verticalAlign=middle;whiteSpace=wrap;rounded=0;" parent="1" vertex="1">
          <mxGeometry x="315" y="740" width="60" height="20" as="geometry" />
        </mxCell>
        <mxCell id="G7QfSokvVwDWU3bzImGe-137" value="&lt;b&gt;NO&lt;/b&gt;" style="text;html=1;align=center;verticalAlign=middle;whiteSpace=wrap;rounded=0;" parent="1" vertex="1">
          <mxGeometry x="481.25" y="676" width="60" height="30" as="geometry" />
        </mxCell>
        <mxCell id="8mwjDF06snm8M_GWOM34-7" style="edgeStyle=orthogonalEdgeStyle;rounded=0;orthogonalLoop=1;jettySize=auto;html=1;entryX=0.5;entryY=0;entryDx=0;entryDy=0;" edge="1" parent="1" source="8mwjDF06snm8M_GWOM34-5" target="8mwjDF06snm8M_GWOM34-6">
          <mxGeometry relative="1" as="geometry" />
        </mxCell>
        <mxCell id="8mwjDF06snm8M_GWOM34-5" value="&lt;b&gt;Enter OTP&lt;/b&gt;" style="shape=parallelogram;perimeter=parallelogramPerimeter;whiteSpace=wrap;html=1;fixedSize=1;fillColor=#dae8fc;strokeColor=#6c8ebf;" vertex="1" parent="1">
          <mxGeometry x="126.25" y="372" width="127.5" height="40" as="geometry" />
        </mxCell>
        <mxCell id="8mwjDF06snm8M_GWOM34-10" style="edgeStyle=orthogonalEdgeStyle;rounded=0;orthogonalLoop=1;jettySize=auto;html=1;entryX=0.5;entryY=0;entryDx=0;entryDy=0;" edge="1" parent="1" source="8mwjDF06snm8M_GWOM34-6" target="8mwjDF06snm8M_GWOM34-9">
          <mxGeometry relative="1" as="geometry" />
        </mxCell>
        <mxCell id="8mwjDF06snm8M_GWOM34-26" style="edgeStyle=orthogonalEdgeStyle;rounded=0;orthogonalLoop=1;jettySize=auto;html=1;entryX=0;entryY=0;entryDx=0;entryDy=0;" edge="1" parent="1" source="8mwjDF06snm8M_GWOM34-6" target="G7QfSokvVwDWU3bzImGe-77">
          <mxGeometry relative="1" as="geometry">
            <mxPoint x="432" y="525" as="targetPoint" />
            <Array as="points">
              <mxPoint x="318" y="482" />
              <mxPoint x="318" y="594" />
            </Array>
          </mxGeometry>
        </mxCell>
        <mxCell id="8mwjDF06snm8M_GWOM34-6" value="&lt;b&gt;Correct&lt;/b&gt;&lt;div&gt;&lt;b&gt;?&lt;/b&gt;&lt;/div&gt;" style="rhombus;whiteSpace=wrap;html=1;fillColor=#76608a;strokeColor=#432D57;fontColor=#ffffff;" vertex="1" parent="1">
          <mxGeometry x="145" y="442" width="90" height="80" as="geometry" />
        </mxCell>
        <mxCell id="8mwjDF06snm8M_GWOM34-8" value="&lt;b&gt;YES&lt;/b&gt;&lt;div&gt;&lt;br&gt;&lt;/div&gt;" style="text;html=1;align=center;verticalAlign=middle;whiteSpace=wrap;rounded=0;" vertex="1" parent="1">
          <mxGeometry x="175" y="347" width="60" height="30" as="geometry" />
        </mxCell>
        <mxCell id="8mwjDF06snm8M_GWOM34-12" style="edgeStyle=orthogonalEdgeStyle;rounded=0;orthogonalLoop=1;jettySize=auto;html=1;entryX=0.5;entryY=0;entryDx=0;entryDy=0;" edge="1" parent="1" source="8mwjDF06snm8M_GWOM34-9" target="8mwjDF06snm8M_GWOM34-11">
          <mxGeometry relative="1" as="geometry" />
        </mxCell>
        <mxCell id="8mwjDF06snm8M_GWOM34-9" value="&lt;b&gt;Password,&lt;/b&gt;&lt;div&gt;&lt;b&gt;Profile information&lt;/b&gt;&lt;/div&gt;" style="shape=parallelogram;perimeter=parallelogramPerimeter;whiteSpace=wrap;html=1;fixedSize=1;fillColor=#dae8fc;strokeColor=#6c8ebf;" vertex="1" parent="1">
          <mxGeometry x="100" y="553" width="180" height="40" as="geometry" />
        </mxCell>
        <mxCell id="8mwjDF06snm8M_GWOM34-13" style="edgeStyle=orthogonalEdgeStyle;rounded=0;orthogonalLoop=1;jettySize=auto;html=1;entryX=0.5;entryY=0;entryDx=0;entryDy=0;" edge="1" parent="1" source="8mwjDF06snm8M_GWOM34-11" target="G7QfSokvVwDWU3bzImGe-109">
          <mxGeometry relative="1" as="geometry" />
        </mxCell>
        <mxCell id="8mwjDF06snm8M_GWOM34-11" value="&lt;b&gt;Store information&lt;/b&gt;" style="rounded=0;whiteSpace=wrap;html=1;fillColor=#d5e8d4;strokeColor=#82b366;" vertex="1" parent="1">
          <mxGeometry x="130" y="628" width="120" height="40" as="geometry" />
        </mxCell>
        <mxCell id="8mwjDF06snm8M_GWOM34-15" value="&lt;b&gt;NO&lt;/b&gt;" style="text;html=1;align=center;verticalAlign=middle;whiteSpace=wrap;rounded=0;" vertex="1" parent="1">
          <mxGeometry x="257" y="226" width="60" height="30" as="geometry" />
        </mxCell>
        <mxCell id="8mwjDF06snm8M_GWOM34-16" value="&lt;b&gt;YES&lt;/b&gt;&lt;div&gt;&lt;br&gt;&lt;/div&gt;" style="text;html=1;align=center;verticalAlign=middle;whiteSpace=wrap;rounded=0;" vertex="1" parent="1">
          <mxGeometry x="182" y="527" width="60" height="30" as="geometry" />
        </mxCell>
        <mxCell id="8mwjDF06snm8M_GWOM34-18" style="edgeStyle=orthogonalEdgeStyle;rounded=0;orthogonalLoop=1;jettySize=auto;html=1;" edge="1" parent="1" target="G7QfSokvVwDWU3bzImGe-77">
          <mxGeometry relative="1" as="geometry">
            <mxPoint x="338" y="703" as="targetPoint" />
            <Array as="points">
              <mxPoint x="560" y="701" />
              <mxPoint x="410" y="701" />
              <mxPoint x="410" y="610" />
            </Array>
            <mxPoint x="560" y="703" as="sourcePoint" />
          </mxGeometry>
        </mxCell>
        <mxCell id="8mwjDF06snm8M_GWOM34-24" value="&lt;b&gt;NO&lt;/b&gt;" style="text;html=1;align=center;verticalAlign=middle;whiteSpace=wrap;rounded=0;" vertex="1" parent="1">
          <mxGeometry x="247" y="455" width="60" height="30" as="geometry" />
        </mxCell>
      </root>
    </mxGraphModel>
  </diagram>
</mxfile>
